<svg width="24" height="19" viewBox="0 0 24 19" fill="none" xmlns="http://www.w3.org/2000/svg">
<path d="M24.0001 15.8532V17.6532C24.0001 17.897 23.9011 18.1079 23.7032 18.286C23.5053 18.4642 23.2709 18.5532 23.0001 18.5532H1.00005C0.72922 18.5532 0.494847 18.4642 0.296933 18.286C0.0990182 18.1079 6.10352e-05 17.897 6.10352e-05 17.6532V15.8532C6.10352e-05 15.6095 0.0990182 15.3985 0.296933 15.2204C0.494847 15.0423 0.72922 14.9532 1.00005 14.9532H23.0001C23.2709 14.9532 23.5053 15.0423 23.7032 15.2204C23.9011 15.3985 24.0001 15.6095 24.0001 15.8532V15.8532ZM24.0001 8.65323V10.4532C24.0001 10.697 23.9011 10.9079 23.7032 11.086C23.5053 11.2642 23.2709 11.3532 23.0001 11.3532H1.00005C0.72922 11.3532 0.494847 11.2642 0.296933 11.086C0.0990182 10.9079 6.10352e-05 10.697 6.10352e-05 10.4532V8.65323C6.10352e-05 8.40948 0.0990182 8.19855 0.296933 8.02043C0.494847 7.8423 0.72922 7.75324 1.00005 7.75324H23.0001C23.2709 7.75324 23.5053 7.8423 23.7032 8.02043C23.9011 8.19855 24.0001 8.40948 24.0001 8.65323V8.65323ZM24.0001 1.45321V3.25322C24.0001 3.49697 23.9011 3.7079 23.7032 3.88602C23.5053 4.06415 23.2709 4.15321 23.0001 4.15321H1.00005C0.72922 4.15321 0.494847 4.06415 0.296933 3.88602C0.0990182 3.7079 6.10352e-05 3.49697 6.10352e-05 3.25322V1.45321C6.10352e-05 1.20946 0.0990182 0.99853 0.296933 0.820407C0.494847 0.642284 0.72922 0.553223 1.00005 0.553223H23.0001C23.2709 0.553223 23.5053 0.642284 23.7032 0.820407C23.9011 0.99853 24.0001 1.20946 24.0001 1.45321V1.45321Z" fill="white"/>
</svg>