<svg width="138" height="14" viewBox="0 0 138 14" fill="none" xmlns="http://www.w3.org/2000/svg">
<path d="M3.58789 0.203125L6.875 9.48438L10.1445 0.203125H13.6074V13H10.9619V9.50195L11.2256 3.46387L7.77148 13H5.96094L2.51562 3.47266L2.7793 9.50195V13H0.142578V0.203125H3.58789ZM27.3219 6.8916C27.3219 8.15137 27.0992 9.25586 26.6539 10.2051C26.2086 11.1543 25.5699 11.8867 24.7379 12.4023C23.9117 12.918 22.9625 13.1758 21.8902 13.1758C20.8297 13.1758 19.8834 12.9209 19.0514 12.4111C18.2193 11.9014 17.5748 11.1748 17.1178 10.2314C16.6607 9.28223 16.4293 8.19238 16.4234 6.96191V6.3291C16.4234 5.06934 16.649 3.96191 17.1002 3.00684C17.5572 2.0459 18.1988 1.31055 19.025 0.800781C19.857 0.285156 20.8062 0.0273438 21.8727 0.0273438C22.9391 0.0273438 23.8854 0.285156 24.7115 0.800781C25.5436 1.31055 26.1852 2.0459 26.6363 3.00684C27.0934 3.96191 27.3219 5.06641 27.3219 6.32031V6.8916ZM24.65 6.31152C24.65 4.96973 24.4098 3.9502 23.9293 3.25293C23.4488 2.55566 22.7633 2.20703 21.8727 2.20703C20.9879 2.20703 20.3053 2.55273 19.8248 3.24414C19.3443 3.92969 19.1012 4.9375 19.0953 6.26758V6.8916C19.0953 8.19824 19.3355 9.21191 19.816 9.93262C20.2965 10.6533 20.9879 11.0137 21.8902 11.0137C22.775 11.0137 23.4547 10.668 23.9293 9.97656C24.4039 9.2793 24.6441 8.26562 24.65 6.93555V6.31152ZM39.0148 2.33887H35.0949V13H32.4582V2.33887H28.591V0.203125H39.0148V2.33887ZM51.6922 6.8916C51.6922 8.15137 51.4695 9.25586 51.0242 10.2051C50.5789 11.1543 49.9402 11.8867 49.1082 12.4023C48.282 12.918 47.3328 13.1758 46.2605 13.1758C45.2 13.1758 44.2537 12.9209 43.4217 12.4111C42.5896 11.9014 41.9451 11.1748 41.4881 10.2314C41.0311 9.28223 40.7996 8.19238 40.7938 6.96191V6.3291C40.7938 5.06934 41.0193 3.96191 41.4705 3.00684C41.9275 2.0459 42.5691 1.31055 43.3953 0.800781C44.2273 0.285156 45.1766 0.0273438 46.243 0.0273438C47.3094 0.0273438 48.2557 0.285156 49.0818 0.800781C49.9139 1.31055 50.5555 2.0459 51.0066 3.00684C51.4637 3.96191 51.6922 5.06641 51.6922 6.32031V6.8916ZM49.0203 6.31152C49.0203 4.96973 48.7801 3.9502 48.2996 3.25293C47.8191 2.55566 47.1336 2.20703 46.243 2.20703C45.3582 2.20703 44.6756 2.55273 44.1951 3.24414C43.7146 3.92969 43.4715 4.9375 43.4656 6.26758V6.8916C43.4656 8.19824 43.7059 9.21191 44.1863 9.93262C44.6668 10.6533 45.3582 11.0137 46.2605 11.0137C47.1453 11.0137 47.825 10.668 48.2996 9.97656C48.7742 9.2793 49.0145 8.26562 49.0203 6.93555V6.31152ZM59.0434 9.82715L61.9437 0.203125H64.8793L60.4232 13H57.6723L53.2338 0.203125H56.1605L59.0434 9.82715ZM74.6914 7.4541H69.6289V10.8818H75.5703V13H66.9922V0.203125H75.5527V2.33887H69.6289V5.38867H74.6914V7.4541ZM88.4234 13H85.7867L80.6539 4.58008V13H78.0172V0.203125H80.6539L85.7955 8.64062V0.203125H88.4234V13ZM100.995 2.33887H97.0754V13H94.4387V2.33887H90.5715V0.203125H100.995V2.33887ZM113.093 0.203125V8.63184C113.093 10.0322 112.653 11.1396 111.774 11.9541C110.901 12.7686 109.706 13.1758 108.188 13.1758C106.694 13.1758 105.508 12.7803 104.629 11.9893C103.75 11.1982 103.302 10.1113 103.284 8.72852V0.203125H105.921V8.64941C105.921 9.4873 106.12 10.0996 106.518 10.4863C106.923 10.8672 107.479 11.0576 108.188 11.0576C109.671 11.0576 110.424 10.2783 110.447 8.71973V0.203125H113.093ZM120.892 8.31543H118.791V13H116.155V0.203125H120.91C122.421 0.203125 123.587 0.540039 124.408 1.21387C125.228 1.8877 125.638 2.83984 125.638 4.07031C125.638 4.94336 125.448 5.67285 125.067 6.25879C124.692 6.83887 124.121 7.30176 123.353 7.64746L126.121 12.877V13H123.291L120.892 8.31543ZM118.791 6.17969H120.918C121.58 6.17969 122.093 6.0127 122.456 5.67871C122.82 5.33887 123.001 4.87305 123.001 4.28125C123.001 3.67773 122.829 3.20312 122.483 2.85742C122.143 2.51172 121.619 2.33887 120.91 2.33887H118.791V6.17969ZM136.25 7.4541H131.188V10.8818H137.129V13H128.551V0.203125H137.111V2.33887H131.188V5.38867H136.25V7.4541Z" fill="white"/>
</svg>
