<svg width="20" height="20" viewBox="0 0 20 20" fill="none" xmlns="http://www.w3.org/2000/svg">
<path d="M19.3342 17.607L18.0614 18.8797C17.889 19.0521 17.6699 19.1313 17.404 19.1173C17.1381 19.1033 16.9094 19.0005 16.7179 18.809L1.16153 3.25267C0.970019 3.06117 0.867269 2.83246 0.853274 2.56657C0.83928 2.30067 0.918459 2.08154 1.09082 1.90918L2.36361 0.636389C2.53597 0.464033 2.75509 0.384853 3.02099 0.398848C3.28689 0.412842 3.51559 0.515593 3.7071 0.707099L19.2635 16.2635C19.455 16.455 19.5577 16.6837 19.5717 16.9496C19.5857 17.2155 19.5065 17.4346 19.3342 17.607Z" fill="white"/>
<path d="M17.607 0.665825L18.8797 1.93862C19.0521 2.11098 19.1313 2.3301 19.1173 2.596C19.1033 2.8619 19.0005 3.0906 18.809 3.28211L3.25267 18.8385C3.06117 19.03 2.83246 19.1327 2.56657 19.1467C2.30067 19.1607 2.08154 19.0815 1.90918 18.9092L0.636389 17.6364C0.464033 17.464 0.384853 17.2449 0.398848 16.979C0.412842 16.7131 0.515593 16.4844 0.707099 16.2929L16.2635 0.736536C16.455 0.54503 16.6837 0.442278 16.9496 0.428284C17.2155 0.414289 17.4346 0.493469 17.607 0.665825Z" fill="white"/>
</svg>